# xmcd CD database file
#
# Track frame offsets:
#	150
#	23075
#	47437
#	85162
#	110537
#	138745
#	159642
#	182422
#	201912
#	223337
#	239487
#	269760
#	287307
#	311155
#
# Disc length: 4394 seconds
#
# Revision: 0
# Processed by: cddbd v1.5PL3 Copyright (c) Steve Scherf et al.
# Submitted via: CDex 1.50
#
DISCID=d011280e
DTITLE=Bobbe Norris - CloseUp
DYEAR=1900
DGENRE=Vocal
TTITLE0=Out of this World
TTITLE1=After You
TTITLE2=Looking at You
TTITLE3=You're Free
TTITLE4=Lady Sings the Blues
TTITLE5=Haunted Heart
TTITLE6=Let the Music Take You
TTITLE7=Move Yourself
TTITLE8=Another Summer's Day
TTITLE9=Flight
TTITLE10=Swan
TTITLE11=Lush Life
TTITLE12=My Baby Likes to Bebop
TTITLE13=Gathering Stones
EXTD=
EXTT0=
EXTT1=
EXTT2=
EXTT3=
EXTT4=
EXTT5=
EXTT6=
EXTT7=
EXTT8=
EXTT9=
EXTT10=
EXTT11=
EXTT12=
EXTT13=
PLAYORDER=
